<?xml version="1.0" standalone="no"?>
<!DOCTYPE svg PUBLIC "-//W3C//DTD SVG 20010904//EN"
 "http://www.w3.org/TR/2001/REC-SVG-20010904/DTD/svg10.dtd">
<svg version="1.0" xmlns="http://www.w3.org/2000/svg"
 width="512.000000pt" height="512.000000pt" viewBox="0 0 512.000000 512.000000"
 preserveAspectRatio="xMidYMid meet">
<metadata>
Created by potrace 1.11, written by Peter Selinger 2001-2013
</metadata>
<g transform="translate(0.000000,512.000000) scale(0.100000,-0.100000)"
fill="#000000" stroke="none">
<path d="M289 5106 c-136 -37 -250 -157 -279 -296 -8 -41 -10 -634 -8 -2285
l3 -2230 33 -68 c41 -84 105 -147 190 -189 l67 -33 2265 0 2265 0 66 32 c112
55 189 149 215 262 21 86 20 4452 0 4529 -30 112 -105 200 -216 255 l-65 32
-2245 2 c-1755 1 -2255 -1 -2291 -11z"/>
</g>
</svg>
